<svg id="visual" viewBox="0 0 960 540" width="960" height="540" xmlns="http://www.w3.org/2000/svg" xmlns:xlink="http://www.w3.org/1999/xlink" version="1.1"><rect x="0" y="0" width="960" height="540" fill="#f9f9f9"></rect><path d="M0 442L10 443.3C20 444.7 40 447.3 60 450.7C80 454 100 458 120 461C140 464 160 466 180 470.2C200 474.3 220 480.7 240 476.2C260 471.7 280 456.3 300 450.3C320 444.3 340 447.7 360 453.2C380 458.7 400 466.3 420 465.5C440 464.7 460 455.3 480 458.8C500 462.3 520 478.7 540 483.5C560 488.3 580 481.7 600 478.2C620 474.7 640 474.3 660 478.5C680 482.7 700 491.3 720 495.8C740 500.3 760 500.7 780 493.3C800 486 820 471 840 471.2C860 471.3 880 486.7 900 487.5C920 488.3 940 474.7 950 467.8L960 461L960 541L950 541C940 541 920 541 900 541C880 541 860 541 840 541C820 541 800 541 780 541C760 541 740 541 720 541C700 541 680 541 660 541C640 541 620 541 600 541C580 541 560 541 540 541C520 541 500 541 480 541C460 541 440 541 420 541C400 541 380 541 360 541C340 541 320 541 300 541C280 541 260 541 240 541C220 541 200 541 180 541C160 541 140 541 120 541C100 541 80 541 60 541C40 541 20 541 10 541L0 541Z" fill="#c6fa18"></path><path d="M0 508L10 507.8C20 507.7 40 507.3 60 505.3C80 503.3 100 499.7 120 491.7C140 483.7 160 471.3 180 469.7C200 468 220 477 240 484.3C260 491.7 280 497.3 300 497.2C320 497 340 491 360 486C380 481 400 477 420 472.7C440 468.3 460 463.7 480 468.3C500 473 520 487 540 487.8C560 488.7 580 476.3 600 476.3C620 476.3 640 488.7 660 487.3C680 486 700 471 720 471.2C740 471.3 760 486.7 780 489.2C800 491.7 820 481.3 840 478.8C860 476.3 880 481.7 900 479C920 476.3 940 465.7 950 460.3L960 455L960 541L950 541C940 541 920 541 900 541C880 541 860 541 840 541C820 541 800 541 780 541C760 541 740 541 720 541C700 541 680 541 660 541C640 541 620 541 600 541C580 541 560 541 540 541C520 541 500 541 480 541C460 541 440 541 420 541C400 541 380 541 360 541C340 541 320 541 300 541C280 541 260 541 240 541C220 541 200 541 180 541C160 541 140 541 120 541C100 541 80 541 60 541C40 541 20 541 10 541L0 541Z" fill="#74f575"></path><path d="M0 480L10 481.8C20 483.7 40 487.3 60 485.7C80 484 100 477 120 480.7C140 484.3 160 498.7 180 503.3C200 508 220 503 240 497.5C260 492 280 486 300 483.7C320 481.3 340 482.7 360 481.8C380 481 400 478 420 483.2C440 488.3 460 501.7 480 506.5C500 511.3 520 507.7 540 506.8C560 506 580 508 600 506.2C620 504.3 640 498.7 660 495C680 491.3 700 489.7 720 492C740 494.3 760 500.7 780 500.2C800 499.7 820 492.3 840 490.2C860 488 880 491 900 494.3C920 497.7 940 501.3 950 503.2L960 505L960 541L950 541C940 541 920 541 900 541C880 541 860 541 840 541C820 541 800 541 780 541C760 541 740 541 720 541C700 541 680 541 660 541C640 541 620 541 600 541C580 541 560 541 540 541C520 541 500 541 480 541C460 541 440 541 420 541C400 541 380 541 360 541C340 541 320 541 300 541C280 541 260 541 240 541C220 541 200 541 180 541C160 541 140 541 120 541C100 541 80 541 60 541C40 541 20 541 10 541L0 541Z" fill="#22e8ac"></path><path d="M0 487L10 490.3C20 493.7 40 500.3 60 505.8C80 511.3 100 515.7 120 517.3C140 519 160 518 180 517.5C200 517 220 517 240 515C260 513 280 509 300 509C320 509 340 513 360 515.2C380 517.3 400 517.7 420 517.2C440 516.7 460 515.3 480 510.3C500 505.3 520 496.7 540 497.8C560 499 580 510 600 513.8C620 517.7 640 514.3 660 508.7C680 503 700 495 720 495C740 495 760 503 780 503C800 503 820 495 840 495.5C860 496 880 505 900 510.5C920 516 940 518 950 519L960 520L960 541L950 541C940 541 920 541 900 541C880 541 860 541 840 541C820 541 800 541 780 541C760 541 740 541 720 541C700 541 680 541 660 541C640 541 620 541 600 541C580 541 560 541 540 541C520 541 500 541 480 541C460 541 440 541 420 541C400 541 380 541 360 541C340 541 320 541 300 541C280 541 260 541 240 541C220 541 200 541 180 541C160 541 140 541 120 541C100 541 80 541 60 541C40 541 20 541 10 541L0 541Z" fill="#00d5cc"></path><path d="M0 515L10 516C20 517 40 519 60 519.7C80 520.3 100 519.7 120 520.7C140 521.7 160 524.3 180 524.8C200 525.3 220 523.7 240 521C260 518.3 280 514.7 300 513.2C320 511.7 340 512.3 360 514.3C380 516.3 400 519.7 420 521.2C440 522.7 460 522.3 480 522.5C500 522.7 520 523.3 540 522C560 520.7 580 517.3 600 518.2C620 519 640 524 660 524.5C680 525 700 521 720 516C740 511 760 505 780 506.8C800 508.7 820 518.3 840 518.3C860 518.3 880 508.7 900 506.3C920 504 940 509 950 511.5L960 514L960 541L950 541C940 541 920 541 900 541C880 541 860 541 840 541C820 541 800 541 780 541C760 541 740 541 720 541C700 541 680 541 660 541C640 541 620 541 600 541C580 541 560 541 540 541C520 541 500 541 480 541C460 541 440 541 420 541C400 541 380 541 360 541C340 541 320 541 300 541C280 541 260 541 240 541C220 541 200 541 180 541C160 541 140 541 120 541C100 541 80 541 60 541C40 541 20 541 10 541L0 541Z" fill="#00bfdb"></path><path d="M0 528L10 527.3C20 526.7 40 525.3 60 526.7C80 528 100 532 120 531C140 530 160 524 180 523.3C200 522.7 220 527.3 240 530.2C260 533 280 534 300 532.5C320 531 340 527 360 526.5C380 526 400 529 420 527.2C440 525.3 460 518.7 480 518.5C500 518.3 520 524.7 540 527C560 529.3 580 527.7 600 528.3C620 529 640 532 660 530.5C680 529 700 523 720 522.2C740 521.3 760 525.7 780 528.2C800 530.7 820 531.3 840 529C860 526.7 880 521.3 900 520.7C920 520 940 524 950 526L960 528L960 541L950 541C940 541 920 541 900 541C880 541 860 541 840 541C820 541 800 541 780 541C760 541 740 541 720 541C700 541 680 541 660 541C640 541 620 541 600 541C580 541 560 541 540 541C520 541 500 541 480 541C460 541 440 541 420 541C400 541 380 541 360 541C340 541 320 541 300 541C280 541 260 541 240 541C220 541 200 541 180 541C160 541 140 541 120 541C100 541 80 541 60 541C40 541 20 541 10 541L0 541Z" fill="#28a6d7"></path></svg>